<svg width="17" height="17" viewBox="0 0 17 17" fill="none" xmlns="http://www.w3.org/2000/svg">
<path fill-rule="evenodd" clip-rule="evenodd" d="M7.77145 1.14645C7.96671 0.951185 8.28329 0.951184 8.47855 1.14645L12.0669 4.73484C12.311 4.97891 12.311 5.37464 12.0669 5.61872C11.8229 5.8628 11.4271 5.8628 11.1831 5.61872L8.75 3.18566V10.6768C8.75 11.022 8.47018 11.3018 8.125 11.3018C7.77982 11.3018 7.5 11.022 7.5 10.6768V3.18566L5.06694 5.61872C4.82286 5.8628 4.42714 5.8628 4.18306 5.61872C3.93898 5.37464 3.93898 4.97891 4.18306 4.73484L7.77145 1.14645ZM1.125 9.05178C1.47018 9.05178 1.75 9.3316 1.75 9.67678V13.6768C1.75 14.16 2.14175 14.5518 2.625 14.5518H13.625C14.1082 14.5518 14.5 14.16 14.5 13.6768V9.67678C14.5 9.3316 14.7798 9.05178 15.125 9.05178C15.4702 9.05178 15.75 9.3316 15.75 9.67678V13.6768C15.75 14.8504 14.7986 15.8018 13.625 15.8018H2.625C1.4514 15.8018 0.5 14.8504 0.5 13.6768V9.67678C0.5 9.3316 0.779822 9.05178 1.125 9.05178Z" fill="#687684" stroke="black" stroke-linecap="round"/>
</svg>
